<svg xmlns="http://www.w3.org/2000/svg" width="2000" height="1128" viewBox="0 0 2000 1128">
  <defs>
    <!-- Soft purple background -->
    <linearGradient id="bg" x1="0" y1="0" x2="0" y2="1">
      <stop offset="0%" stop-color="#8f7ab8"/>
      <stop offset="55%" stop-color="#a492c8"/>
      <stop offset="100%" stop-color="#b7acd7"/>
    </linearGradient>

    <!-- Underline gradient -->
    <linearGradient id="accent" x1="0" y1="0" x2="1" y2="0">
      <stop offset="0%" stop-color="#ffd36e"/>
      <stop offset="50%" stop-color="#ff9f43"/>
      <stop offset="100%" stop-color="#ff6b6b"/>
    </linearGradient>

    <!-- Soft shadow -->
    <filter id="softShadow" x="-20%" y="-20%" width="140%" height="140%">
      <feDropShadow dx="0" dy="10" stdDeviation="12" flood-color="#000000" flood-opacity="0.18"/>
    </filter>

    <!-- Glass -->
    <linearGradient id="glass" x1="0" y1="0" x2="0" y2="1">
      <stop offset="0%" stop-color="#ffffff" stop-opacity="0.25"/>
      <stop offset="100%" stop-color="#ffffff" stop-opacity="0.10"/>
    </linearGradient>
  </defs>

  <!-- Background -->
  <rect width="2000" height="1128" fill="url(#bg)"/>

  <!-- Subtle enterprise polygons -->
  <g fill="#ffffff" opacity="0.06">
    <polygon points="0,1040 460,760 1500,1128 0,1128"/>
    <polygon points="420,760 320,0 0,0 0,640"/>
    <polygon points="1020,0 2000,980 2000,420 1760,0"/>
  </g>

  <!-- Soft vignette -->
  <g opacity="0.10">
    <ellipse cx="1000" cy="560" rx="720" ry="360" fill="#ffffff"/>
  </g>

  <!-- Decorative dots (very subtle) -->
  <g fill="#ffffff" opacity="0.12">
    <circle cx="260" cy="260" r="8"/>
    <circle cx="520" cy="200" r="6"/>
    <circle cx="1580" cy="260" r="8"/>
    <circle cx="1730" cy="360" r="6"/>
    <circle cx="1420" cy="760" r="7"/>
    <circle cx="760" cy="900" r="6"/>
  </g>

  <!-- =========================
       SCHOOL MATERIALS (LEFT)
  ========================== -->
  <g transform="translate(170,690)" filter="url(#softShadow)">
    <!-- Pencil holder -->
    <g>
      <rect x="0" y="130" width="170" height="210" rx="24" fill="#78c2a4"/>
      <rect x="0" y="130" width="170" height="56" rx="24" fill="#63b293"/>
      <rect x="26" y="160" width="118" height="150" rx="18" fill="#ffffff" opacity="0.12"/>
    </g>

    <!-- Pencils -->
    <g>
      <rect x="35" y="0" width="18" height="170" rx="9" fill="#f5b267"/>
      <polygon points="35,0 44,-24 53,0" fill="#6c4f3d"/>
      <rect x="75" y="-10" width="18" height="190" rx="9" fill="#7ec8e3"/>
      <polygon points="75,-10 84,-36 93,-10" fill="#6c4f3d"/>
      <rect x="115" y="10" width="18" height="170" rx="9" fill="#ffd36e"/>
      <polygon points="115,10 124,-14 133,10" fill="#6c4f3d"/>
    </g>

    <!-- Sticky note -->
    <g transform="translate(210,250)">
      <rect x="0" y="0" width="110" height="84" rx="14" fill="#ffd36e"/>
      <rect x="0" y="0" width="110" height="22" rx="14" fill="#ffffff" opacity="0.18"/>
    </g>

    <!-- Paper clips -->
    <g transform="translate(40,365)" stroke="#ffd36e" stroke-width="10" fill="none" opacity="0.9">
      <path d="M0 40 C0 10, 50 10, 50 40 C50 70, 0 70, 0 40 Z"/>
      <path d="M80 50 C80 30, 120 30, 120 50 C120 70, 80 70, 80 50 Z" opacity="0.75"/>
    </g>
  </g>

<!--  &lt;!&ndash; Open notebook (LEFT-BOTTOM) &ndash;&gt;-->
<!--  <g transform="translate(270,880)" filter="url(#softShadow)">-->
<!--    <rect x="0" y="0" width="520" height="200" rx="26" fill="#f4d2c5"/>-->
<!--    <rect x="22" y="20" width="230" height="160" rx="16" fill="#ffffff"/>-->
<!--    <rect x="268" y="20" width="230" height="160" rx="16" fill="#ffffff"/>-->
<!--    <line x1="260" y1="20" x2="260" y2="180" stroke="#d6a59a" stroke-width="6"/>-->
<!--    <g stroke="#c9c9c9" stroke-width="3" opacity="0.45">-->
<!--      <line x1="44" y1="55" x2="230" y2="55"/>-->
<!--      <line x1="44" y1="85" x2="230" y2="85"/>-->
<!--      <line x1="44" y1="115" x2="230" y2="115"/>-->
<!--      <line x1="44" y1="145" x2="230" y2="145"/>-->
<!--      <line x1="290" y1="55" x2="476" y2="55"/>-->
<!--      <line x1="290" y1="85" x2="476" y2="85"/>-->
<!--      <line x1="290" y1="115" x2="476" y2="115"/>-->
<!--      <line x1="290" y1="145" x2="476" y2="145"/>-->
<!--    </g>-->
<!--  </g>-->

  <!-- =========================
       SCHOOL MATERIALS (RIGHT)
  ========================== -->

  <!-- Book -->
  <g transform="translate(1460,720)" filter="url(#softShadow)">
    <rect x="0" y="0" width="360" height="240" rx="26" fill="#8fd0df"/>
    <rect x="0" y="0" width="360" height="52" rx="26" fill="#ffffff" opacity="0.14"/>
    <rect x="0" y="180" width="360" height="60" rx="0" fill="#ffffff" opacity="0.50"/>
    <rect x="40" y="68" width="280" height="8" rx="4" fill="#ffffff" opacity="0.22"/>
    <rect x="40" y="92" width="240" height="8" rx="4" fill="#ffffff" opacity="0.18"/>
  </g>

  <!-- Two pencils -->
  <g transform="translate(1340,980) rotate(-10)" filter="url(#softShadow)">
    <g transform="translate(0,0)">
      <rect x="0" y="0" width="380" height="30" rx="15" fill="#f5b267"/>
      <rect x="320" y="0" width="60" height="30" rx="15" fill="#ffd6a5"/>
      <polygon points="0,0 -28,15 0,30" fill="#6c4f3d"/>
    </g>
    <g transform="translate(40,52)">
      <rect x="0" y="0" width="320" height="28" rx="14" fill="#78c2a4"/>
      <rect x="270" y="0" width="50" height="28" rx="14" fill="#cfe5dc"/>
      <polygon points="0,0 -26,14 0,28" fill="#2e3a3b"/>
    </g>
  </g>

  <!-- Paper plane top-left (optional subtle) -->
  <g transform="translate(250,170)" opacity="0.35">
    <polygon points="0,70 240,0 170,120" fill="#a6e2ef"/>
    <path d="M-40 110 C-90 150 -60 205 20 215" fill="none" stroke="#a6e2ef" stroke-width="6" stroke-dasharray="16 14"/>
  </g>

  <!-- =========================
       POWERED BY AI (BOTTOM-RIGHT)
  ========================== -->
  <g transform="translate(1340,1010)">
    <!-- Glass pill background -->
    <rect x="0" y="0" width="600" height="92" rx="24" fill="url(#glass)" stroke="#ffffff" stroke-opacity="0.18"/>

    <!-- Small AI spark icon -->
    <g transform="translate(26,18)">
      <circle cx="28" cy="28" r="28" fill="#ffffff" opacity="0.12"/>
      <path d="M28 6 L34 22 L50 28 L34 34 L28 50 L22 34 L6 28 L22 22 Z"
            fill="url(#accent)" opacity="0.95"/>
    </g>

    <!-- Text -->
    <text x="92" y="40"
          font-family="Poppins, Inter, Segoe UI, Arial, sans-serif"
          font-size="28"
          font-weight="700"
          fill="#ffffff"
          opacity="0.92">POWERED BY AI</text>

    <text x="92" y="68"
          font-family="Poppins, Inter, Segoe UI, Arial, sans-serif"
          font-size="22"
          font-weight="600"
          fill="#ffffff"
          opacity="0.70">Analysis • Insights • Reports</text>

    <!-- Accent underline -->
    <rect x="92" y="74" width="240" height="4" rx="2" fill="url(#accent)" opacity="0.95"/>
  </g>
</svg>
